<mxfile host="app.diagrams.net" modified="2023-01-30T03:53:22.552Z" agent="5.0 (Macintosh; Intel Mac OS X 10_15_7) AppleWebKit/537.36 (KHTML, like Gecko) Chrome/109.0.0.0 Safari/537.36" version="20.6.0" etag="0GaojabEERMAu4Cx-M22" type="github">
  <diagram id="SP1o1xI_UPl9B5bT9c3x" name="第 1 页">
    <mxGraphModel dx="1788" dy="1787" grid="1" gridSize="10" guides="1" tooltips="1" connect="1" arrows="1" fold="1" page="1" pageScale="1" pageWidth="827" pageHeight="1169" math="0" shadow="0">
      <root>
        <mxCell id="0" />
        <mxCell id="1" parent="0" />
        <mxCell id="wJHfTox9JGs2SPVfrYYw-3" value="" style="edgeStyle=orthogonalEdgeStyle;rounded=0;orthogonalLoop=1;jettySize=auto;html=1;dashed=1;" edge="1" parent="1" source="wJHfTox9JGs2SPVfrYYw-1" target="wJHfTox9JGs2SPVfrYYw-2">
          <mxGeometry relative="1" as="geometry" />
        </mxCell>
        <mxCell id="wJHfTox9JGs2SPVfrYYw-14" value="&lt;font style=&quot;font-size: 14px;&quot;&gt;&lt;b&gt;Evert UpdateMemoryPeriod,&amp;nbsp;&lt;br&gt;check keys in redis list&lt;br&gt;&amp;nbsp;and set into local memory if list exists&lt;/b&gt;&lt;/font&gt;" style="edgeLabel;html=1;align=center;verticalAlign=middle;resizable=0;points=[];" vertex="1" connectable="0" parent="wJHfTox9JGs2SPVfrYYw-3">
          <mxGeometry x="-0.1812" y="-3" relative="1" as="geometry">
            <mxPoint as="offset" />
          </mxGeometry>
        </mxCell>
        <mxCell id="wJHfTox9JGs2SPVfrYYw-5" value="" style="edgeStyle=orthogonalEdgeStyle;rounded=0;orthogonalLoop=1;jettySize=auto;html=1;dashed=1;startArrow=classic;startFill=1;" edge="1" parent="1" source="wJHfTox9JGs2SPVfrYYw-1" target="wJHfTox9JGs2SPVfrYYw-4">
          <mxGeometry relative="1" as="geometry" />
        </mxCell>
        <mxCell id="wJHfTox9JGs2SPVfrYYw-1" value="Memory List Cache" style="rounded=1;whiteSpace=wrap;html=1;" vertex="1" parent="1">
          <mxGeometry x="120" y="150" width="120" height="60" as="geometry" />
        </mxCell>
        <mxCell id="wJHfTox9JGs2SPVfrYYw-18" style="edgeStyle=orthogonalEdgeStyle;rounded=0;orthogonalLoop=1;jettySize=auto;html=1;dashed=1;fontSize=14;startArrow=none;startFill=0;" edge="1" parent="1" source="wJHfTox9JGs2SPVfrYYw-2" target="wJHfTox9JGs2SPVfrYYw-8">
          <mxGeometry relative="1" as="geometry" />
        </mxCell>
        <mxCell id="wJHfTox9JGs2SPVfrYYw-21" value="&lt;b&gt;&amp;nbsp; source&lt;/b&gt;" style="edgeLabel;html=1;align=center;verticalAlign=middle;resizable=0;points=[];fontSize=14;" vertex="1" connectable="0" parent="wJHfTox9JGs2SPVfrYYw-18">
          <mxGeometry x="0.5633" y="3" relative="1" as="geometry">
            <mxPoint y="1" as="offset" />
          </mxGeometry>
        </mxCell>
        <mxCell id="wJHfTox9JGs2SPVfrYYw-32" style="edgeStyle=orthogonalEdgeStyle;rounded=0;orthogonalLoop=1;jettySize=auto;html=1;fontSize=14;startArrow=classic;startFill=1;entryX=0;entryY=0.647;entryDx=0;entryDy=0;entryPerimeter=0;dashed=1;" edge="1" parent="1" source="wJHfTox9JGs2SPVfrYYw-2" target="wJHfTox9JGs2SPVfrYYw-8">
          <mxGeometry relative="1" as="geometry">
            <mxPoint x="70" y="580" as="targetPoint" />
            <Array as="points">
              <mxPoint x="20" y="400" />
              <mxPoint x="20" y="580" />
            </Array>
          </mxGeometry>
        </mxCell>
        <mxCell id="wJHfTox9JGs2SPVfrYYw-33" value="&lt;b&gt;Every CheckRankedListPeriod,&lt;br&gt;chek redis list and annDB consistency,&amp;nbsp;&lt;br&gt;clear redis list if differ&lt;/b&gt;" style="edgeLabel;html=1;align=center;verticalAlign=middle;resizable=0;points=[];fontSize=14;" vertex="1" connectable="0" parent="wJHfTox9JGs2SPVfrYYw-32">
          <mxGeometry x="-0.3093" y="-3" relative="1" as="geometry">
            <mxPoint as="offset" />
          </mxGeometry>
        </mxCell>
        <mxCell id="wJHfTox9JGs2SPVfrYYw-2" value="Redis lIst Cache" style="rounded=1;whiteSpace=wrap;html=1;" vertex="1" parent="1">
          <mxGeometry x="120" y="370" width="120" height="60" as="geometry" />
        </mxCell>
        <mxCell id="wJHfTox9JGs2SPVfrYYw-15" value="&lt;b&gt;If local model cache differs,&lt;br&gt;check list &#39;s createtime with redis &lt;br&gt;model&#39;s createtime,&lt;br&gt;&amp;nbsp;clear redis model if differ&lt;/b&gt;" style="edgeStyle=orthogonalEdgeStyle;rounded=0;orthogonalLoop=1;jettySize=auto;html=1;dashed=1;fontSize=14;startArrow=classic;startFill=1;" edge="1" parent="1" source="wJHfTox9JGs2SPVfrYYw-4" target="wJHfTox9JGs2SPVfrYYw-6">
          <mxGeometry relative="1" as="geometry" />
        </mxCell>
        <mxCell id="wJHfTox9JGs2SPVfrYYw-4" value="Memory Data Cache" style="rounded=1;whiteSpace=wrap;html=1;" vertex="1" parent="1">
          <mxGeometry x="440" y="150" width="120" height="60" as="geometry" />
        </mxCell>
        <mxCell id="wJHfTox9JGs2SPVfrYYw-19" style="edgeStyle=orthogonalEdgeStyle;rounded=0;orthogonalLoop=1;jettySize=auto;html=1;dashed=1;fontSize=14;startArrow=none;startFill=0;" edge="1" parent="1" source="wJHfTox9JGs2SPVfrYYw-6" target="wJHfTox9JGs2SPVfrYYw-8">
          <mxGeometry relative="1" as="geometry" />
        </mxCell>
        <mxCell id="wJHfTox9JGs2SPVfrYYw-6" value="Redis Data Cache" style="rounded=1;whiteSpace=wrap;html=1;" vertex="1" parent="1">
          <mxGeometry x="440" y="370" width="120" height="60" as="geometry" />
        </mxCell>
        <mxCell id="wJHfTox9JGs2SPVfrYYw-8" value="&lt;b&gt;Ann DB&lt;/b&gt;" style="rounded=1;whiteSpace=wrap;html=1;" vertex="1" parent="1">
          <mxGeometry x="210" y="525" width="240" height="85" as="geometry" />
        </mxCell>
        <mxCell id="wJHfTox9JGs2SPVfrYYw-9" value="MultiGetIDs" style="rounded=0;whiteSpace=wrap;html=1;fillColor=#ffe6cc;strokeColor=#d79b00;" vertex="1" parent="1">
          <mxGeometry x="120" y="-10" width="140" height="50" as="geometry" />
        </mxCell>
        <mxCell id="wJHfTox9JGs2SPVfrYYw-12" style="edgeStyle=orthogonalEdgeStyle;rounded=0;orthogonalLoop=1;jettySize=auto;html=1;" edge="1" parent="1" source="wJHfTox9JGs2SPVfrYYw-10" target="wJHfTox9JGs2SPVfrYYw-4">
          <mxGeometry relative="1" as="geometry" />
        </mxCell>
        <mxCell id="wJHfTox9JGs2SPVfrYYw-10" value="MultiGetAnnouncement" style="rounded=0;whiteSpace=wrap;html=1;fillColor=#ffe6cc;strokeColor=#d79b00;" vertex="1" parent="1">
          <mxGeometry x="405" y="-10" width="190" height="50" as="geometry" />
        </mxCell>
        <mxCell id="wJHfTox9JGs2SPVfrYYw-13" value="&lt;font style=&quot;font-size: 14px;&quot;&gt;&lt;b&gt;Every checkInterval, featch list &lt;br&gt;and check createime with local model cache,&lt;br&gt;clear local cache if differ&lt;/b&gt;&lt;/font&gt;" style="text;html=1;align=center;verticalAlign=middle;resizable=0;points=[];autosize=1;strokeColor=none;fillColor=none;" vertex="1" parent="1">
          <mxGeometry x="160" y="90" width="320" height="60" as="geometry" />
        </mxCell>
        <mxCell id="wJHfTox9JGs2SPVfrYYw-26" style="edgeStyle=orthogonalEdgeStyle;rounded=0;orthogonalLoop=1;jettySize=auto;html=1;fontSize=14;startArrow=none;startFill=0;entryX=0.6;entryY=1.025;entryDx=0;entryDy=0;entryPerimeter=0;" edge="1" parent="1" source="wJHfTox9JGs2SPVfrYYw-23" target="wJHfTox9JGs2SPVfrYYw-6">
          <mxGeometry relative="1" as="geometry">
            <mxPoint x="510" y="490" as="targetPoint" />
          </mxGeometry>
        </mxCell>
        <mxCell id="wJHfTox9JGs2SPVfrYYw-30" value="&lt;b&gt;SET&lt;/b&gt;" style="edgeLabel;html=1;align=center;verticalAlign=middle;resizable=0;points=[];fontSize=14;" vertex="1" connectable="0" parent="wJHfTox9JGs2SPVfrYYw-26">
          <mxGeometry x="0.1274" y="-1" relative="1" as="geometry">
            <mxPoint as="offset" />
          </mxGeometry>
        </mxCell>
        <mxCell id="wJHfTox9JGs2SPVfrYYw-27" style="edgeStyle=orthogonalEdgeStyle;rounded=0;orthogonalLoop=1;jettySize=auto;html=1;fontSize=14;startArrow=none;startFill=0;entryX=0.342;entryY=0.992;entryDx=0;entryDy=0;entryPerimeter=0;" edge="1" parent="1" source="wJHfTox9JGs2SPVfrYYw-23" target="wJHfTox9JGs2SPVfrYYw-2">
          <mxGeometry relative="1" as="geometry">
            <mxPoint x="160" y="550" as="targetPoint" />
            <Array as="points">
              <mxPoint x="160" y="875" />
              <mxPoint x="160" y="630" />
              <mxPoint x="161" y="630" />
            </Array>
          </mxGeometry>
        </mxCell>
        <mxCell id="wJHfTox9JGs2SPVfrYYw-31" value="&lt;b&gt;ZADD&lt;/b&gt;" style="edgeLabel;html=1;align=center;verticalAlign=middle;resizable=0;points=[];fontSize=14;" vertex="1" connectable="0" parent="wJHfTox9JGs2SPVfrYYw-27">
          <mxGeometry x="0.0785" y="2" relative="1" as="geometry">
            <mxPoint y="1" as="offset" />
          </mxGeometry>
        </mxCell>
        <mxCell id="wJHfTox9JGs2SPVfrYYw-36" style="edgeStyle=orthogonalEdgeStyle;rounded=0;orthogonalLoop=1;jettySize=auto;html=1;entryX=0.16;entryY=1.044;entryDx=0;entryDy=0;entryPerimeter=0;fontSize=14;startArrow=none;startFill=0;" edge="1" parent="1" source="wJHfTox9JGs2SPVfrYYw-23" target="wJHfTox9JGs2SPVfrYYw-8">
          <mxGeometry relative="1" as="geometry">
            <Array as="points">
              <mxPoint x="248" y="720" />
            </Array>
          </mxGeometry>
        </mxCell>
        <mxCell id="wJHfTox9JGs2SPVfrYYw-37" value="Update" style="edgeLabel;html=1;align=center;verticalAlign=middle;resizable=0;points=[];fontSize=14;" vertex="1" connectable="0" parent="wJHfTox9JGs2SPVfrYYw-36">
          <mxGeometry x="-0.0002" y="2" relative="1" as="geometry">
            <mxPoint as="offset" />
          </mxGeometry>
        </mxCell>
        <mxCell id="wJHfTox9JGs2SPVfrYYw-23" value="ConfirmAnnouncement&lt;br&gt;UpdateAnnouncement" style="rounded=0;whiteSpace=wrap;html=1;fontSize=14;fillColor=#ffe6cc;strokeColor=#d79b00;" vertex="1" parent="1">
          <mxGeometry x="230" y="830" width="200" height="90" as="geometry" />
        </mxCell>
        <mxCell id="wJHfTox9JGs2SPVfrYYw-38" style="edgeStyle=orthogonalEdgeStyle;rounded=0;orthogonalLoop=1;jettySize=auto;html=1;fontSize=14;startArrow=none;startFill=0;endArrow=none;endFill=0;" edge="1" parent="1" source="wJHfTox9JGs2SPVfrYYw-24">
          <mxGeometry relative="1" as="geometry">
            <mxPoint x="160" y="780" as="targetPoint" />
          </mxGeometry>
        </mxCell>
        <mxCell id="wJHfTox9JGs2SPVfrYYw-39" style="edgeStyle=orthogonalEdgeStyle;rounded=0;orthogonalLoop=1;jettySize=auto;html=1;fontSize=14;startArrow=none;startFill=0;endArrow=none;endFill=0;" edge="1" parent="1" source="wJHfTox9JGs2SPVfrYYw-24">
          <mxGeometry relative="1" as="geometry">
            <mxPoint x="510" y="780" as="targetPoint" />
          </mxGeometry>
        </mxCell>
        <mxCell id="wJHfTox9JGs2SPVfrYYw-24" value="SendAnnouncement" style="rounded=0;whiteSpace=wrap;html=1;fontSize=14;fillColor=#ffe6cc;strokeColor=#d79b00;" vertex="1" parent="1">
          <mxGeometry x="270" y="760" width="140" height="40" as="geometry" />
        </mxCell>
        <mxCell id="wJHfTox9JGs2SPVfrYYw-28" style="edgeStyle=orthogonalEdgeStyle;rounded=0;orthogonalLoop=1;jettySize=auto;html=1;fontSize=14;startArrow=none;startFill=0;" edge="1" parent="1" source="wJHfTox9JGs2SPVfrYYw-25" target="wJHfTox9JGs2SPVfrYYw-8">
          <mxGeometry relative="1" as="geometry" />
        </mxCell>
        <mxCell id="wJHfTox9JGs2SPVfrYYw-29" value="&lt;b&gt;Delete&lt;/b&gt;" style="edgeLabel;html=1;align=center;verticalAlign=middle;resizable=0;points=[];fontSize=14;" vertex="1" connectable="0" parent="wJHfTox9JGs2SPVfrYYw-28">
          <mxGeometry x="-0.0632" relative="1" as="geometry">
            <mxPoint as="offset" />
          </mxGeometry>
        </mxCell>
        <mxCell id="wJHfTox9JGs2SPVfrYYw-25" value="DeleteAnnouncement" style="rounded=0;whiteSpace=wrap;html=1;fontSize=14;fillColor=#ffe6cc;strokeColor=#d79b00;" vertex="1" parent="1">
          <mxGeometry x="640" y="542.5" width="160" height="50" as="geometry" />
        </mxCell>
      </root>
    </mxGraphModel>
  </diagram>
</mxfile>
